<svg xmlns="http://www.w3.org/2000/svg" width="1728" height="2430" viewBox="0 0 1728 2430"><path d="M 1135 1732 L 1134 1733 L 1105 1732 L 1104 1733 L 1071 1732 L 1070 1733 L 1039 1732 L 1038 1733 L 1003 1732 L 1002 1733 L 981 1733 L 980 1734 L 979 1733 L 978 1733 L 977 1734 L 936 1732 L 935 1733 L 934 1732 L 933 1733 L 909 1733 L 908 1734 L 878 1733 L 877 1734 L 876 1734 L 875 1733 L 874 1734 L 844 1733 L 843 1734 L 842 1733 L 841 1734 L 808 1733 L 807 1734 L 776 1733 L 774 1734 L 774 1733 L 772 1732 L 770 1733 L 754 1733 L 754 1735 L 753 1736 L 754 1737 L 753 1779 L 754 1780 L 753 1815 L 754 1816 L 753 1817 L 753 1818 L 754 1819 L 753 1820 L 754 1821 L 753 1857 L 754 1858 L 753 1859 L 753 1860 L 754 1861 L 754 1862 L 753 1863 L 754 1864 L 753 1870 L 752 1871 L 753 1872 L 752 1910 L 753 1911 L 752 1912 L 753 1913 L 752 1955 L 753 1956 L 753 1957 L 752 1958 L 753 1959 L 753 1960 L 752 1961 L 753 1962 L 753 1965 L 752 1966 L 752 1967 L 752 1968 L 751 2011 L 752 2012 L 751 2013 L 751 2016 L 752 2017 L 751 2053 L 752 2054 L 751 2055 L 752 2056 L 752 2057 L 751 2058 L 751 2059 L 752 2060 L 752 2061 L 751 2062 L 751 2063 L 752 2064 L 752 2065 L 751 2066 L 752 2067 L 751 2093 L 752 2094 L 751 2131 L 752 2132 L 751 2133 L 752 2134 L 776 2135 L 777 2134 L 807 2135 L 808 2134 L 836 2135 L 837 2134 L 839 2134 L 840 2135 L 841 2134 L 868 2135 L 869 2134 L 896 2134 L 897 2133 L 898 2134 L 899 2134 L 900 2133 L 929 2134 L 930 2133 L 960 2134 L 961 2133 L 962 2133 L 963 2134 L 964 2133 L 991 2134 L 992 2133 L 1020 2134 L 1021 2133 L 1023 2133 L 1024 2134 L 1025 2133 L 1055 2134 L 1056 2133 L 1076 2134 L 1077 2133 L 1078 2134 L 1079 2133 L 1107 2134 L 1108 2133 L 1132 2133 L 1133 2132 L 1151 2133 L 1152 2132 L 1152 2128 L 1151 2127 L 1152 2086 L 1151 2085 L 1152 2042 L 1151 2041 L 1152 2008 L 1151 2007 L 1153 1962 L 1152 1961 L 1153 1935 L 1152 1934 L 1152 1933 L 1153 1932 L 1152 1931 L 1153 1893 L 1152 1892 L 1153 1856 L 1152 1855 L 1153 1854 L 1152 1853 L 1153 1809 L 1152 1808 L 1152 1807 L 1153 1806 L 1153 1805 L 1154 1768 L 1153 1767 L 1154 1766 L 1153 1765 L 1154 1734 L 1153 1733 L 1151 1733 L 1150 1734 L 1149 1733 L 1138 1732 L 1137 1733 L 1136 1733 Z" fill="black" /><path d="M 848 1225 L 847 1225 L 844 1225 L 843 1226 L 841 1226 L 840 1227 L 839 1227 L 838 1228 L 836 1228 L 834 1230 L 833 1230 L 822 1240 L 822 1242 L 820 1244 L 820 1246 L 819 1247 L 819 1248 L 818 1249 L 818 1253 L 817 1254 L 816 1266 L 817 1267 L 817 1270 L 818 1271 L 818 1273 L 819 1274 L 819 1275 L 821 1277 L 821 1278 L 823 1280 L 823 1281 L 829 1287 L 830 1287 L 832 1289 L 833 1289 L 835 1291 L 836 1291 L 837 1292 L 838 1292 L 839 1293 L 841 1293 L 842 1294 L 844 1294 L 845 1295 L 859 1296 L 860 1295 L 861 1295 L 862 1294 L 865 1294 L 866 1293 L 867 1293 L 868 1292 L 869 1292 L 870 1291 L 871 1291 L 875 1287 L 876 1287 L 879 1284 L 879 1283 L 882 1281 L 882 1280 L 883 1279 L 883 1278 L 884 1277 L 884 1276 L 885 1275 L 885 1273 L 886 1272 L 886 1269 L 887 1268 L 888 1255 L 887 1254 L 887 1252 L 886 1251 L 886 1249 L 885 1248 L 885 1246 L 883 1244 L 883 1243 L 882 1242 L 882 1241 L 875 1233 L 874 1233 L 872 1230 L 871 1230 L 870 1229 L 869 1229 L 868 1228 L 867 1228 L 866 1227 L 864 1227 L 863 1226 L 860 1226 L 859 1225 Z" fill="black" /><path d="M 849 1057 L 848 1058 L 843 1058 L 842 1059 L 841 1059 L 840 1060 L 838 1060 L 837 1061 L 836 1061 L 835 1062 L 834 1062 L 833 1063 L 832 1063 L 830 1064 L 829 1064 L 827 1066 L 826 1066 L 824 1068 L 824 1069 L 823 1070 L 823 1071 L 822 1072 L 822 1074 L 821 1075 L 821 1077 L 820 1078 L 820 1080 L 819 1081 L 819 1082 L 818 1083 L 818 1086 L 817 1087 L 817 1091 L 818 1092 L 818 1093 L 819 1094 L 819 1096 L 820 1097 L 819 1098 L 820 1099 L 820 1101 L 821 1102 L 821 1103 L 822 1104 L 822 1105 L 827 1110 L 828 1110 L 829 1111 L 830 1111 L 832 1113 L 833 1113 L 834 1114 L 836 1114 L 837 1115 L 838 1115 L 839 1116 L 841 1116 L 842 1117 L 845 1117 L 846 1118 L 850 1119 L 851 1118 L 854 1118 L 855 1117 L 857 1117 L 858 1116 L 859 1116 L 861 1114 L 863 1114 L 865 1112 L 866 1112 L 868 1110 L 869 1110 L 869 1109 L 871 1107 L 871 1106 L 872 1105 L 872 1103 L 873 1102 L 873 1101 L 874 1100 L 874 1098 L 876 1097 L 876 1095 L 877 1094 L 877 1091 L 878 1090 L 878 1089 L 877 1088 L 877 1084 L 876 1083 L 876 1081 L 875 1080 L 875 1078 L 874 1077 L 874 1075 L 873 1074 L 873 1073 L 872 1072 L 872 1071 L 871 1070 L 871 1069 L 868 1066 L 867 1066 L 866 1064 L 865 1064 L 864 1063 L 863 1063 L 862 1062 L 860 1062 L 858 1060 L 856 1060 L 855 1059 L 852 1059 L 851 1058 Z" fill="black" /><path d="M 847 891 L 846 892 L 844 892 L 842 894 L 840 894 L 838 896 L 836 896 L 833 898 L 832 898 L 830 900 L 829 900 L 825 904 L 825 905 L 824 906 L 824 908 L 823 909 L 823 911 L 822 912 L 822 914 L 821 915 L 821 918 L 820 919 L 820 923 L 821 924 L 821 926 L 822 927 L 821 930 L 822 931 L 822 932 L 823 933 L 823 936 L 824 937 L 824 938 L 825 939 L 825 940 L 828 943 L 829 943 L 830 944 L 831 944 L 832 945 L 833 945 L 834 946 L 835 946 L 836 947 L 838 947 L 840 949 L 842 949 L 843 950 L 844 950 L 845 951 L 848 951 L 849 952 L 850 951 L 852 952 L 853 951 L 854 951 L 855 950 L 856 950 L 857 949 L 858 949 L 859 948 L 860 948 L 861 947 L 862 947 L 863 946 L 864 946 L 865 945 L 866 945 L 867 944 L 868 944 L 873 939 L 873 936 L 874 935 L 874 933 L 875 932 L 876 929 L 877 928 L 877 926 L 878 925 L 878 918 L 877 917 L 877 915 L 876 914 L 876 912 L 875 911 L 875 910 L 874 909 L 874 907 L 872 905 L 872 904 L 868 900 L 867 900 L 866 899 L 865 899 L 863 897 L 861 897 L 861 896 L 860 896 L 859 895 L 857 895 L 855 893 L 853 893 L 852 891 Z" fill="black" /><path d="M 850 716 L 849 717 L 848 717 L 847 718 L 845 718 L 843 720 L 842 720 L 840 722 L 838 722 L 837 723 L 836 723 L 835 724 L 834 724 L 832 726 L 831 726 L 829 728 L 828 730 L 827 731 L 827 732 L 826 733 L 826 735 L 825 736 L 825 739 L 824 740 L 824 742 L 823 743 L 823 746 L 822 747 L 823 748 L 823 749 L 824 750 L 824 752 L 825 753 L 825 755 L 826 756 L 826 758 L 827 759 L 827 761 L 828 762 L 827 763 L 828 764 L 828 765 L 830 767 L 831 767 L 832 768 L 833 768 L 834 769 L 835 769 L 836 770 L 837 770 L 838 771 L 839 771 L 840 772 L 841 772 L 842 773 L 843 773 L 844 774 L 845 774 L 846 775 L 847 775 L 848 776 L 850 776 L 851 777 L 852 777 L 853 776 L 854 777 L 856 775 L 857 775 L 858 774 L 859 774 L 861 772 L 862 772 L 863 771 L 864 771 L 866 769 L 867 769 L 868 768 L 869 768 L 872 765 L 873 765 L 874 764 L 874 763 L 876 762 L 876 759 L 877 758 L 877 755 L 878 754 L 878 751 L 879 750 L 879 749 L 880 748 L 880 744 L 879 743 L 879 741 L 878 740 L 878 739 L 877 738 L 877 737 L 876 736 L 876 734 L 875 733 L 875 731 L 874 730 L 875 729 L 874 728 L 874 727 L 872 725 L 871 725 L 869 723 L 867 723 L 866 722 L 865 722 L 864 721 L 862 721 L 861 720 L 860 720 L 859 719 L 857 719 L 856 718 L 854 717 L 853 716 Z" fill="black" /><path d="M 850 550 L 848 552 L 847 552 L 845 554 L 844 554 L 843 555 L 842 555 L 841 556 L 840 556 L 838 558 L 837 558 L 836 559 L 835 559 L 834 560 L 833 560 L 829 563 L 829 565 L 828 566 L 828 568 L 827 569 L 827 571 L 826 572 L 826 574 L 825 575 L 825 577 L 824 578 L 824 584 L 825 585 L 825 586 L 826 587 L 826 589 L 827 590 L 827 592 L 828 593 L 827 595 L 828 596 L 828 598 L 829 599 L 829 600 L 831 602 L 832 602 L 833 603 L 834 603 L 835 604 L 836 604 L 837 605 L 838 605 L 839 606 L 840 606 L 841 607 L 842 607 L 843 608 L 844 608 L 846 610 L 848 610 L 849 611 L 851 611 L 852 612 L 854 612 L 855 611 L 856 611 L 857 611 L 858 611 L 859 610 L 860 610 L 862 608 L 863 608 L 864 607 L 865 607 L 866 606 L 867 606 L 869 604 L 870 604 L 871 603 L 872 603 L 875 600 L 875 599 L 876 598 L 876 596 L 878 595 L 878 593 L 879 592 L 879 589 L 880 588 L 880 586 L 881 585 L 881 583 L 882 582 L 882 580 L 881 579 L 881 577 L 880 576 L 880 574 L 879 573 L 879 571 L 878 570 L 878 569 L 877 568 L 877 566 L 876 565 L 876 564 L 875 563 L 875 562 L 874 560 L 873 560 L 872 559 L 871 559 L 870 558 L 869 558 L 868 557 L 867 557 L 866 556 L 865 556 L 864 555 L 863 555 L 862 554 L 860 554 L 858 552 L 857 551 L 856 550 Z" fill="black" /><path d="M 851 379 L 850 380 L 849 380 L 848 381 L 846 381 L 844 383 L 843 383 L 842 384 L 841 384 L 840 385 L 839 385 L 838 386 L 837 386 L 835 388 L 834 388 L 832 390 L 831 390 L 830 391 L 829 391 L 829 392 L 828 393 L 827 394 L 826 395 L 826 396 L 825 396 L 825 398 L 824 399 L 824 401 L 823 402 L 823 404 L 822 405 L 822 407 L 821 408 L 821 412 L 823 414 L 823 418 L 824 419 L 824 420 L 825 421 L 825 422 L 826 424 L 826 426 L 827 427 L 826 429 L 827 430 L 827 431 L 828 432 L 829 432 L 830 433 L 831 433 L 832 434 L 833 434 L 834 435 L 835 435 L 836 436 L 837 436 L 838 437 L 839 437 L 840 438 L 841 438 L 842 439 L 844 439 L 845 440 L 846 440 L 847 441 L 848 441 L 849 442 L 850 441 L 853 441 L 854 440 L 855 440 L 857 438 L 858 438 L 859 438 L 860 438 L 861 437 L 862 437 L 864 435 L 865 435 L 866 434 L 867 434 L 869 432 L 870 432 L 873 429 L 873 428 L 875 427 L 875 424 L 876 423 L 876 420 L 877 419 L 877 417 L 878 416 L 878 414 L 879 413 L 879 408 L 878 407 L 878 406 L 877 405 L 877 403 L 876 402 L 876 401 L 875 400 L 875 398 L 874 397 L 874 396 L 873 395 L 874 393 L 873 392 L 873 391 L 872 390 L 871 390 L 870 389 L 869 389 L 868 388 L 867 388 L 866 387 L 865 387 L 864 386 L 863 386 L 862 385 L 861 385 L 860 384 L 859 383 L 858 382 L 857 382 L 856 381 L 854 381 L 853 380 L 852 380 Z" fill="black" /><path d="M 1046 328 L 1045 329 L 1044 329 L 1043 334 L 1042 335 L 1042 341 L 1041 342 L 1041 349 L 1040 350 L 1040 357 L 1039 358 L 1038 366 L 1037 367 L 1037 373 L 1036 374 L 1036 381 L 1035 382 L 1036 383 L 1035 384 L 1035 391 L 1034 392 L 1033 397 L 1032 398 L 1032 402 L 1031 403 L 1031 405 L 1030 406 L 1030 408 L 1029 409 L 1029 411 L 1028 412 L 1028 428 L 1029 429 L 1028 430 L 1027 431 L 1028 432 L 1028 451 L 1029 452 L 1028 453 L 1028 454 L 1029 455 L 1028 474 L 1029 475 L 1029 496 L 1030 497 L 1028 498 L 1029 499 L 1029 527 L 1030 528 L 1029 553 L 1030 554 L 1029 576 L 1030 577 L 1030 578 L 1029 579 L 1030 580 L 1029 600 L 1030 601 L 1029 602 L 1029 603 L 1030 604 L 1030 629 L 1031 630 L 1030 632 L 1031 633 L 1031 634 L 1034 637 L 1034 638 L 1036 640 L 1036 655 L 1037 656 L 1036 657 L 1037 658 L 1036 684 L 1037 685 L 1037 695 L 1036 696 L 1036 697 L 1035 698 L 1034 699 L 1032 701 L 1032 702 L 1029 705 L 1029 706 L 1025 710 L 1025 711 L 1020 715 L 1019 715 L 1017 717 L 1016 717 L 1014 719 L 1013 719 L 1012 720 L 1011 720 L 1009 722 L 1008 738 L 1009 739 L 1009 740 L 1010 741 L 1011 741 L 1012 742 L 1014 742 L 1015 743 L 1016 743 L 1017 744 L 1021 744 L 1022 746 L 1024 746 L 1025 747 L 1029 747 L 1030 748 L 1030 764 L 1031 765 L 1030 785 L 1031 786 L 1030 812 L 1031 813 L 1030 835 L 1031 836 L 1031 865 L 1031 866 L 1030 867 L 1031 868 L 1031 883 L 1032 884 L 1031 915 L 1032 916 L 1031 935 L 1032 936 L 1032 963 L 1033 964 L 1032 965 L 1033 966 L 1032 984 L 1033 985 L 1032 986 L 1033 987 L 1032 1007 L 1033 1008 L 1033 1009 L 1034 1009 L 1035 1010 L 1036 1010 L 1037 1011 L 1038 1011 L 1039 1012 L 1042 1012 L 1043 1013 L 1061 1014 L 1062 1013 L 1065 1013 L 1066 1012 L 1068 1012 L 1069 1011 L 1070 1011 L 1071 1010 L 1072 1010 L 1074 1008 L 1075 1008 L 1076 984 L 1075 983 L 1076 956 L 1075 955 L 1076 930 L 1075 929 L 1075 906 L 1074 905 L 1075 883 L 1074 882 L 1075 845 L 1074 844 L 1075 828 L 1074 827 L 1075 799 L 1074 798 L 1074 780 L 1073 779 L 1074 749 L 1073 748 L 1076 745 L 1078 745 L 1079 744 L 1081 744 L 1082 743 L 1084 743 L 1085 742 L 1086 742 L 1087 741 L 1088 741 L 1089 741 L 1090 741 L 1092 739 L 1093 724 L 1092 723 L 1092 722 L 1091 721 L 1091 720 L 1090 720 L 1088 717 L 1087 717 L 1085 715 L 1083 715 L 1081 713 L 1080 713 L 1079 712 L 1078 712 L 1076 710 L 1075 710 L 1066 701 L 1066 700 L 1063 696 L 1063 682 L 1062 681 L 1063 680 L 1062 679 L 1063 657 L 1062 656 L 1062 638 L 1063 637 L 1063 636 L 1065 634 L 1065 633 L 1066 632 L 1067 631 L 1068 630 L 1068 625 L 1067 624 L 1067 623 L 1068 622 L 1067 621 L 1067 605 L 1066 604 L 1067 585 L 1066 584 L 1066 583 L 1067 582 L 1067 581 L 1066 580 L 1067 564 L 1066 563 L 1067 562 L 1066 561 L 1066 539 L 1065 538 L 1066 537 L 1065 536 L 1066 519 L 1065 518 L 1066 497 L 1065 496 L 1065 477 L 1064 476 L 1065 454 L 1064 453 L 1064 435 L 1063 434 L 1064 433 L 1064 432 L 1063 431 L 1064 409 L 1063 408 L 1063 406 L 1062 405 L 1062 401 L 1061 400 L 1062 393 L 1061 392 L 1061 387 L 1060 385 L 1060 379 L 1059 378 L 1059 374 L 1058 373 L 1058 366 L 1057 365 L 1058 360 L 1057 359 L 1057 354 L 1056 353 L 1056 346 L 1055 345 L 1055 340 L 1054 339 L 1054 334 L 1053 333 L 1054 329 L 1053 328 Z" fill="black" /><path d="M 843 222 L 841 224 L 840 224 L 839 225 L 838 225 L 837 226 L 836 226 L 833 228 L 832 228 L 831 229 L 830 229 L 829 230 L 828 229 L 827 230 L 826 230 L 824 232 L 823 232 L 823 233 L 821 235 L 821 238 L 820 239 L 820 241 L 819 242 L 819 244 L 818 245 L 818 246 L 817 247 L 817 249 L 816 250 L 816 252 L 817 253 L 817 254 L 818 255 L 818 258 L 818 259 L 818 260 L 819 261 L 819 262 L 820 263 L 820 266 L 821 267 L 821 268 L 822 269 L 822 270 L 823 271 L 823 272 L 824 272 L 826 274 L 827 274 L 828 276 L 829 276 L 830 277 L 831 277 L 832 278 L 833 278 L 834 279 L 835 279 L 836 280 L 838 280 L 839 281 L 840 281 L 841 282 L 842 282 L 843 283 L 844 283 L 845 284 L 846 284 L 847 283 L 848 283 L 850 281 L 851 281 L 852 280 L 853 280 L 854 279 L 855 279 L 856 278 L 857 278 L 859 276 L 860 276 L 861 275 L 862 276 L 863 275 L 864 275 L 865 274 L 866 274 L 868 272 L 868 271 L 869 270 L 869 267 L 870 266 L 870 263 L 871 262 L 872 260 L 873 259 L 873 258 L 874 257 L 874 249 L 873 248 L 873 247 L 872 246 L 872 244 L 871 243 L 871 242 L 870 241 L 870 239 L 869 238 L 869 236 L 868 235 L 868 234 L 865 231 L 864 231 L 863 230 L 861 229 L 859 227 L 858 227 L 857 226 L 855 226 L 855 225 L 854 225 L 853 224 L 851 224 L 850 223 L 849 223 L 848 222 Z" fill="black" /><path d="M 1267 175 L 1266 176 L 1261 175 L 1259 177 L 1259 179 L 1260 180 L 1259 181 L 1259 183 L 1260 184 L 1259 185 L 1259 186 L 1260 187 L 1260 189 L 1259 190 L 1260 191 L 1259 218 L 1257 220 L 1257 221 L 1254 224 L 1253 241 L 1254 242 L 1253 243 L 1253 244 L 1254 245 L 1254 246 L 1253 247 L 1254 248 L 1253 276 L 1254 277 L 1253 305 L 1254 306 L 1253 307 L 1254 308 L 1253 340 L 1254 341 L 1254 364 L 1255 365 L 1254 368 L 1253 369 L 1254 370 L 1253 404 L 1254 405 L 1253 406 L 1253 407 L 1254 408 L 1254 409 L 1253 410 L 1254 411 L 1253 435 L 1254 436 L 1253 437 L 1253 439 L 1254 440 L 1253 473 L 1254 474 L 1254 494 L 1255 495 L 1254 496 L 1254 497 L 1255 498 L 1254 506 L 1253 507 L 1254 508 L 1254 509 L 1253 510 L 1253 511 L 1254 512 L 1253 535 L 1254 536 L 1254 538 L 1255 539 L 1255 540 L 1259 544 L 1259 545 L 1261 548 L 1260 569 L 1261 570 L 1260 571 L 1260 572 L 1261 573 L 1261 593 L 1262 594 L 1261 595 L 1261 596 L 1262 597 L 1260 646 L 1261 647 L 1261 659 L 1262 660 L 1261 661 L 1261 662 L 1262 663 L 1261 671 L 1259 673 L 1259 674 L 1258 675 L 1258 676 L 1257 676 L 1257 678 L 1256 679 L 1256 681 L 1255 682 L 1255 683 L 1254 684 L 1254 685 L 1253 686 L 1253 687 L 1234 705 L 1234 725 L 1235 726 L 1235 732 L 1234 733 L 1233 733 L 1232 734 L 1230 734 L 1228 735 L 1227 735 L 1225 737 L 1224 737 L 1223 738 L 1223 739 L 1222 739 L 1223 741 L 1223 751 L 1222 751 L 1222 752 L 1221 753 L 1221 754 L 1220 755 L 1220 756 L 1219 757 L 1219 762 L 1220 763 L 1219 772 L 1220 773 L 1220 799 L 1221 800 L 1220 811 L 1216 815 L 1215 850 L 1216 851 L 1215 852 L 1216 853 L 1215 854 L 1216 855 L 1215 879 L 1216 880 L 1215 881 L 1216 882 L 1215 905 L 1216 906 L 1215 907 L 1215 909 L 1216 910 L 1215 958 L 1216 959 L 1215 960 L 1215 961 L 1216 962 L 1215 993 L 1216 994 L 1215 995 L 1215 996 L 1216 997 L 1215 1021 L 1216 1022 L 1215 1036 L 1216 1037 L 1216 1040 L 1219 1044 L 1219 1047 L 1220 1048 L 1219 1049 L 1220 1050 L 1219 1081 L 1220 1082 L 1219 1129 L 1220 1130 L 1219 1165 L 1220 1166 L 1219 1167 L 1220 1168 L 1219 1195 L 1220 1196 L 1220 1197 L 1219 1198 L 1220 1199 L 1218 1246 L 1219 1247 L 1218 1248 L 1219 1249 L 1218 1276 L 1219 1277 L 1218 1333 L 1219 1334 L 1218 1335 L 1219 1336 L 1218 1363 L 1219 1364 L 1219 1365 L 1218 1366 L 1219 1367 L 1218 1368 L 1219 1369 L 1219 1371 L 1217 1372 L 1218 1373 L 1217 1374 L 1218 1375 L 1218 1376 L 1217 1377 L 1218 1378 L 1217 1417 L 1218 1418 L 1217 1419 L 1217 1420 L 1218 1421 L 1217 1451 L 1218 1452 L 1217 1498 L 1218 1499 L 1217 1529 L 1221 1533 L 1223 1533 L 1224 1534 L 1231 1534 L 1232 1535 L 1253 1536 L 1254 1537 L 1285 1538 L 1286 1537 L 1299 1537 L 1300 1536 L 1306 1536 L 1307 1535 L 1313 1536 L 1314 1535 L 1317 1535 L 1318 1534 L 1319 1534 L 1320 1533 L 1321 1533 L 1323 1531 L 1323 1528 L 1324 1527 L 1323 1526 L 1323 1523 L 1324 1522 L 1324 1521 L 1323 1520 L 1324 1488 L 1323 1487 L 1323 1486 L 1324 1485 L 1324 1484 L 1323 1483 L 1324 1454 L 1323 1453 L 1324 1413 L 1323 1412 L 1323 1411 L 1324 1410 L 1323 1409 L 1324 1378 L 1323 1377 L 1324 1342 L 1323 1341 L 1325 1301 L 1324 1300 L 1325 1267 L 1324 1266 L 1325 1265 L 1324 1264 L 1325 1231 L 1324 1230 L 1325 1205 L 1324 1204 L 1325 1203 L 1325 1202 L 1324 1201 L 1325 1159 L 1324 1158 L 1325 1157 L 1324 1156 L 1325 1125 L 1324 1124 L 1325 1092 L 1324 1091 L 1325 1045 L 1327 1043 L 1328 1043 L 1330 1041 L 1331 1036 L 1332 1035 L 1332 1031 L 1331 1030 L 1332 1029 L 1331 1028 L 1332 990 L 1331 989 L 1331 988 L 1332 987 L 1331 986 L 1332 945 L 1331 944 L 1331 942 L 1332 941 L 1331 940 L 1332 907 L 1331 906 L 1333 869 L 1332 868 L 1333 867 L 1332 866 L 1333 823 L 1332 822 L 1332 821 L 1333 820 L 1332 819 L 1332 816 L 1328 812 L 1330 761 L 1329 760 L 1330 759 L 1330 755 L 1329 754 L 1329 744 L 1328 743 L 1328 740 L 1327 739 L 1327 738 L 1326 737 L 1325 737 L 1324 734 L 1322 734 L 1321 733 L 1318 733 L 1316 731 L 1316 706 L 1315 705 L 1315 704 L 1314 702 L 1314 701 L 1310 697 L 1310 696 L 1309 695 L 1308 695 L 1307 694 L 1307 693 L 1305 691 L 1304 691 L 1302 689 L 1301 689 L 1293 681 L 1293 680 L 1291 678 L 1291 676 L 1290 674 L 1291 648 L 1290 647 L 1291 611 L 1290 610 L 1291 609 L 1290 608 L 1291 593 L 1290 592 L 1291 564 L 1290 563 L 1290 546 L 1292 544 L 1292 543 L 1295 541 L 1295 540 L 1296 539 L 1296 538 L 1297 537 L 1298 517 L 1297 516 L 1298 515 L 1297 514 L 1298 493 L 1297 492 L 1298 456 L 1297 455 L 1298 454 L 1297 453 L 1298 432 L 1297 431 L 1298 430 L 1297 429 L 1298 399 L 1297 398 L 1298 397 L 1298 396 L 1297 395 L 1297 374 L 1296 373 L 1296 372 L 1297 371 L 1296 370 L 1297 337 L 1296 336 L 1297 335 L 1296 334 L 1297 313 L 1296 311 L 1297 277 L 1296 275 L 1297 255 L 1296 254 L 1297 225 L 1296 224 L 1296 223 L 1291 218 L 1292 197 L 1291 196 L 1292 195 L 1291 194 L 1291 180 L 1290 179 L 1291 178 L 1290 177 L 1290 175 Z" fill="black" /></svg>